<svg xmlns="http://www.w3.org/2000/svg" xmlns:xlink="http://www.w3.org/1999/xlink" version="1.1" x="0px" y="0px" viewBox="0 0 100 125" enable-background="new 0 0 100 100" xml:space="preserve"><g><path d="M66.285,9.488C61.254,7.469,55.758,6.352,50,6.352c-22.27,0-40.646,16.679-43.314,38.227   c-0.223,1.779-0.339,3.589-0.339,5.426c0,24.107,19.548,43.645,43.653,43.645c24.114,0,43.653-19.537,43.653-43.645   C93.653,31.651,82.332,15.944,66.285,9.488z M59.534,41.311h5.226c1.341,0,2.431,1.089,2.431,2.433c0,1.343-1.09,2.434-2.431,2.434   h-5.37c-1.284,5.556-6.251,9.711-12.188,9.711h-5.859l15.379,14.606c0.975,0.925,1.013,2.466,0.088,3.44   c-0.48,0.505-1.123,0.756-1.763,0.756c-0.604,0-1.206-0.223-1.676-0.668l-19.8-18.802c-0.722-0.687-0.953-1.741-0.586-2.665   c0.368-0.927,1.264-1.533,2.262-1.533h11.955c3.225,0,5.984-2.012,7.109-4.846H35.246c-1.347,0-2.437-1.091-2.437-2.434   c0-1.344,1.09-2.433,2.437-2.433h19.315c-0.9-3.224-3.854-5.595-7.36-5.595H35.246c-1.347,0-2.437-1.091-2.437-2.436   c0-1.344,1.09-2.434,2.437-2.434H64.76c1.341,0,2.431,1.09,2.431,2.434c0,1.345-1.09,2.436-2.431,2.436h-7.676   C58.328,37.316,59.186,39.226,59.534,41.311z"/></g><text x="0" y="115" fill="#000000" font-size="5px" font-weight="bold" font-family="'Helvetica Neue', Helvetica, Arial-Unicode, Arial, Sans-serif">Created by myladkings</text><text x="0" y="120" fill="#000000" font-size="5px" font-weight="bold" font-family="'Helvetica Neue', Helvetica, Arial-Unicode, Arial, Sans-serif">from the Noun Project</text></svg>